<?xml version="1.0" encoding="utf-8"?>
<!-- Generator: Adobe Illustrator 18.1.1, SVG Export Plug-In . SVG Version: 6.00 Build 0)  -->
<svg version="1.1" id="Layer_1" xmlns="http://www.w3.org/2000/svg" xmlns:xlink="http://www.w3.org/1999/xlink" x="0px" y="0px"
	 viewBox="0 0 60 40" enable-background="new 0 0 60 40" xml:space="preserve">
<path d="M18.2,36.6c0.5-0.5,0.5-1.4,0-2L6.7,21.8H56c0.8,0,1.4-0.6,1.4-1.4S56.7,19,56,19H6.7L18.2,6.2c0.5-0.6,0.6-1.4,0-1.9
	c-0.5-0.5-1.5-0.6-2,0c0,0-13.7,15-13.8,15.2S2,19.9,2,20.4s0.3,0.8,0.4,1c0.1,0.1,13.8,15.2,13.8,15.2c0.3,0.3,0.6,0.4,1,0.4
	S17.9,36.9,18.2,36.6z"/>
</svg>
